<?xml version="1.0" encoding="utf-8"?>
<!-- Generator: Adobe Illustrator 25.0.0, SVG Export Plug-In . SVG Version: 6.00 Build 0)  -->
<svg version="1.1" id="Calque_1" xmlns="http://www.w3.org/2000/svg" xmlns:xlink="http://www.w3.org/1999/xlink" x="0px" y="0px"
	 viewBox="0 0 1000 1000" style="enable-background:new 0 0 1000 1000;" xml:space="preserve">
<style type="text/css">
	.st0{opacity:0.05;}
	.st1{fill:#B3B3B3;}
</style>
<g class="st0">
	<path class="st1" d="M-0.7,604.5c4.9-1,9.8-1.2,14.7,0c13.4,3.3,22,15.5,22.4,27.8c0.4,14.9-10.8,29.4-28.3,30.3
		c-1.6,0.1-3.2-0.2-4.8-0.2c-1.3-0.1-2.6-0.2-4-0.2C-0.7,643-0.7,623.7-0.7,604.5z"/>
	<path class="st1" d="M794.3-0.7c1.4,7.7,2.9,15.4,4.3,23.1c1.1,5.9,2.3,11.7,3.4,17.6c0.2,1.1,0.2,2.3,0.4,3.5
		c-3.9-0.7-39.9-13-63.2-21.5c-0.8-0.3-1.7-0.7-2.5-1c0.3-1.6,1.4-2.2,2.3-2.9c6.1-5.3,12.3-10.6,18.4-16c1-0.8,2.3-1.4,2.5-2.9
		C771.3-0.7,782.8-0.7,794.3-0.7z"/>
	<path class="st1" d="M257.1-0.7c-0.2,1.6-1.6,2.1-2.6,2.9c-8.9,7.2-17.8,14.4-26.7,21.7c-7.3,5.9-14.5,11.7-21.8,17.6
		c-1,0.8-2.1,1.6-3.4,2.6c-0.3-0.7-0.6-1.2-0.7-1.6c-2.1-13.3-4.2-26.6-6.3-39.9c-0.2-1-0.2-2.1-0.2-3.2
		C216-0.7,236.5-0.7,257.1-0.7z"/>
	<path class="st1" d="M1000,491.6c-2.2-0.4-4.5-0.7-6.7-1.3c-12.3-3.5-20.4-15.1-19.5-27.8c0.8-13.1,10.8-23.5,23.8-25.2
		c0.8-0.1,1.6-0.1,2.4-0.2C1000,455.4,1000,473.5,1000,491.6z"/>
	<path class="st1" d="M1000,749.4c-6.5-3.7-12.9-7.5-19.4-11.2c-6-3.4-12-6.9-18.1-10.3c-1-0.6-2-1.2-3.4-2c1-0.7,1.8-1.4,2.7-1.9
		c11.4-6.7,22.8-13.3,34.2-20c1.4-0.8,2.7-1.7,4-2.6C1000,717.4,1000,733.4,1000,749.4z"/>
	<path class="st1" d="M636.5-0.7c-0.1,1.3-0.2,2.6-0.2,4c0.1,8.1,0.2,16.3,0.3,24.4c0,1.3-0.1,2.6-0.1,4.1
		c-13,3.9-26.1,7.1-39.1,11.1c-0.3,12.6,0.6,24.9,0.4,37.2c-2.8,0.9-3.3,1-6.9,0.3c-0.1-0.8-0.3-1.7-0.4-2.6
		c-0.5-8.5-0.7-37.2-0.2-40.6c12.7-3.8,25.8-7,38.7-11c0.1-1,0.3-1.8,0.2-2.5c-0.1-7.6-0.3-15.2-0.5-22.8c0-0.5-0.2-1-0.3-1.6
		C631.2-0.7,633.9-0.7,636.5-0.7z"/>
	<path class="st1" d="M1000,353.1c-0.3,0.3-0.6,0.5-0.8,0.8c-6.3,9-12.5,17.9-18.8,26.9c-0.2,0.3-0.5,0.6-0.8,0.9
		c-1.5,0.4-2.6-0.4-3.8-0.9c-9.3-3.4-18.5-6.9-27.7-10.3c-1.2-0.5-2.5-0.9-4-1.4c-0.8,0.9-1.6,1.8-2.2,2.8
		c-5.1,7.2-10.1,14.4-15.2,21.6c-0.9,1.3-1.8,2.6-2.9,4c-2.1-0.9-3.7-2.1-5.3-3.5c1.4-2.9,20.3-30.1,23.1-33
		c3.8,1.1,7.6,2.7,11.5,4.1c4,1.5,8,3,12,4.4c3.9,1.4,7.7,2.8,11.7,4.3c0.9-1.2,1.7-2.3,2.5-3.3c5.7-8.1,11.3-16.1,17-24.2
		c0.6-0.9,1.2-1.7,1.9-2.6c0.5-0.6,1.2-0.4,1.8-0.2C1000,346.7,1000,349.9,1000,353.1z"/>
	<path class="st1" d="M-0.7,723c3.5-0.8,7-1.5,10.8-2.4c0.7,0.9,1.5,1.8,2.1,2.8c4.4,6.5,8.8,13,13.2,19.5c0.7,1.1,1.5,2.1,2.4,3.4
		c10.1-1.9,20-4.4,30-6.3c2.2,2.1,14.4,19.7,18.9,27.3c-0.2,1.4-1.5,1.7-2.5,2.4c-0.8,0.6-1.8,1.1-2.6,1.7c-1.4-0.2-1.7-1.3-2.3-2.2
		c-4-5.8-7.9-11.7-11.9-17.5c-0.7-1.1-1.5-2.1-2.4-3.3c-1.3,0.2-2.5,0.2-3.6,0.5c-7.7,1.7-15.4,3.3-23,5c-1.2,0.3-2.4,0.4-3.8,0.7
		c-0.7-0.9-1.5-1.8-2.1-2.7c-4.3-6.3-8.5-12.6-12.8-18.9c-0.8-1.2-1.7-2.4-2.5-3.6c-2.8-0.6-5.3,1.1-8,0.9
		C-0.7,727.8-0.7,725.4-0.7,723z"/>
	<path class="st1" d="M202.6,1000c0.7-0.6,1.3-1.3,2-1.8c3.1-2.1,6.2-4.2,9.2-6.3c0.7-0.5,1.4-1.2,2.1-1.8c-3-2-53.1-26.2-56.4-27.3
		c-0.2,0.2-0.5,0.4-0.4,0.6c0.9,12.2,1.8,24.4,2.7,36.6c-1.6,0-3.2,0-4.8,0c-0.4-4.5-0.8-9-1.2-13.5c-0.7-9.6-1.4-19.1-2.1-28.7
		c-0.1-0.9,0-1.8,0-2.8c1.8-0.2,2.9,0.8,4.2,1.4c17.2,8.3,34.3,16.5,51.4,24.8c4.6,2.2,9.1,4.4,13.6,6.6c0.8,0.4,1.6,0.9,2.7,1.5
		c-1,0.8-1.7,1.5-2.6,2.1c-3.4,2.3-6.8,4.6-10.2,7c-0.6,0.4-1.5,0.7-1.5,1.7C208.5,1000,205.6,1000,202.6,1000z"/>
	<path class="st1" d="M-0.7,495.6c1.2,1,2.5,2,3.7,3c1.3,1.1,2.3,2.6,4,3.5c1-0.9,1.9-1.8,2.9-2.7c3.6-3.6,7.2-7.2,10.8-10.7
		c0.8-0.8,1.5-1.5,2.4-2.2c1.9-1.3,4.3-1,5.8,0.7c1.3,1.5,1.5,3.9,0.2,5.5c-0.6,0.9-1.4,1.6-2.2,2.3c-3.7,3.7-7.4,7.3-11,11
		c-0.8,0.8-1.6,1.7-2.5,2.7c1.1,1.1,1.9,2.1,2.9,3c3.6,3.6,7.2,7.2,10.7,10.8c0.8,0.8,1.5,1.5,2.1,2.4c1.2,1.7,0.9,4.1-0.5,5.5
		c-1.4,1.4-3.8,1.7-5.5,0.6c-0.9-0.6-1.6-1.4-2.4-2.1c-3.6-3.6-7.2-7.2-10.8-10.7c-0.9-0.9-1.9-1.8-3-2.9c-0.8,0.6-1.5,1.1-2.2,1.7
		c-1.3,1.2-2.4,2.5-3.7,3.6c-0.4,0.4-1.2,0.3-1.8,0.5C-0.7,512.7-0.7,504.2-0.7,495.6z"/>
	<path class="st1" d="M614.9,1000c-1.9-5.5-3.9-11-5.8-16.7c-5.2-0.9-10.4-0.8-15.5-1.1c-5.1-0.3-10.1-0.6-15.3-0.9
		c-0.3-0.5-0.8-1.1-1-1.7c-3.2-9.5-6.4-18.9-9.6-28.4c-0.2-0.5-0.2-1-0.3-1.6c1.9-1.3,4-1.6,6.2-2.4c0.5,0.9,1,1.6,1.3,2.4
		c2.3,6.8,4.6,13.6,7,20.4c0.4,1.3,0.9,2.5,1.4,3.9c3.4,0.9,6.9,0.5,10.3,0.8c3.5,0.3,6.9,0.4,10.4,0.6c3.4,0.2,6.9,0.5,10.1,0.7
		c0.4,0.5,0.7,0.7,0.7,0.9c2.4,7.1,4.9,14.1,7.2,21.2c0.2,0.6,0.2,1.3,0.2,2C619.7,1000,617.3,1000,614.9,1000z"/>
	<path class="st1" d="M330.7,1000c0.2-0.6,0.5-1.3-0.2-1.8c-0.8-0.6-1.8-1.2-2.7-1.7c-8-4.8-16-9.6-24-14.4
		c-1.1-0.7-2.2-1.4-3.5-2.3c6.2-11.6,12.3-23,18.4-34.5c2.4,0.5,4.2,1.8,6.3,3.1c-0.4,1.1-0.7,2-1.2,2.9
		c-3.9,7.4-7.9,14.8-11.9,22.2c-0.6,1.1-1.5,2.2-1.5,3.8c3.1,2.4,6.7,4.2,10,6.3c3.3,2,6.6,4,9.9,6c3.4,2.1,6.8,4.1,10.2,6.2
		c-0.5,1.6-0.9,2.9-1.4,4.3C336.6,1000,333.7,1000,330.7,1000z"/>
	<path class="st1" d="M927.9,1000c-0.5-1.2-0.9-2.5-1.5-3.7c-4.8-10.8-15.7-17.6-27.5-17.1c-12.8,0.6-22.3,8.9-25.9,18.9
		c-0.2,0.6-0.2,1.3-0.3,1.9c-2.1,0-4.3,0-6.4,0c0.3-1.4,0.4-2.9,0.9-4.2c5.1-13.9,18.5-23,33.3-22.9c14.8,0.1,28,9.7,32.8,23.6
		c0.4,1.1,0.7,2.3,1,3.4C932.2,1000,930.1,1000,927.9,1000z"/>
	<path class="st1" d="M-0.7,90.6c2.4,0.3,4.7,0.8,7.1,0.9c12.3,0.5,25.2-8.5,27.3-23.1c2.1-14.1-6.8-27.1-20.5-30.4
		c-2.8-0.7-5.8-1-8.7-0.6c-1.7,0.2-3.4,0.3-5.1,0.4c0-1.6,0-3.2,0-4.8c1.2,0,2.4,0,3.6-0.2C18,30.5,34.4,40.5,38,57.4
		c4.6,21.8-12.3,38.7-30.4,38.8c-2.8,0-5.6-0.1-8.3-0.8C-0.7,93.8-0.7,92.2-0.7,90.6z"/>
	<path class="st1" d="M1000,102.6c-0.5-1.1-1-2.1-1.6-3.4c-0.8,0.2-1.6,0.2-2.3,0.5c-5.1,2.2-10.2,4.5-15.3,6.8
		c-1,0.4-1.9,0.9-3,1.2c-2.2,0.6-4.3-0.4-5.2-2.6c-0.8-1.9-0.2-4,1.6-5.3c0.8-0.5,1.7-0.8,2.5-1.2c4.9-2.2,9.7-4.3,14.6-6.5
		c1-0.4,1.9-0.9,3-1.5c-0.2-0.8-0.3-1.6-0.6-2.2c-2.3-5.2-4.6-10.5-6.9-15.7c-0.4-0.9-0.8-1.7-1-2.6c-0.6-2.3,0.5-4.3,2.6-5.2
		c1.9-0.8,4-0.2,5.3,1.6c0.5,0.8,0.9,1.6,1.3,2.5c1.5,3.5,3,7.1,4.5,10.6c0.1,0.2,0.4,0.4,0.5,0.6C1000,87.6,1000,95.1,1000,102.6z"
		/>
	<path class="st1" d="M1000,945.6c-2.5-1.6-4.9-3.1-7.6-4.8c-0.5,0.9-1,1.7-1.3,2.5c-2.2,5.6-4.3,11.2-6.5,16.8
		c-0.5,1.2-1,2.4-1.5,3.5c-0.4,0.1-0.5,0.1-0.6,0.1c-0.1,0-0.3,0-0.4-0.1c-7.1-4.9-14.3-9.8-21.4-14.7c-0.5-0.4-1.1-0.8-1.6-1.2
		c-0.2-0.2-0.3-0.4-0.5-0.9c0.7-1.1,1.5-2.3,2.3-3.5c0.4-0.6,1-1.2,1.6-1.9c5.9,3.4,10.9,7.7,16.9,11.1c2.1-3.9,3.2-7.8,4.7-11.6
		c1.5-3.7,2.9-7.4,4.4-11.4c0.9,0.4,1.6,0.6,2.2,1c3.1,2,6.2,4.1,9.2,6.2C1000,939.7,1000,942.6,1000,945.6z"/>
	<path class="st1" d="M40.1,1000c0.7-2.8,1.5-5.7,2.2-8.5c2.1-1.9,4.1-3.7,6.2-5.6c1-0.9,2-1.7,3-2.6c3.3-2.8,3.3-2.8,4.5-7.2
		c0.8-3.2,1.7-6.4,2.5-9.7c0.3-1.2,0.8-2.2,1.8-3c3.8-3.2,7.5-6.3,11.3-9.5c0.2-0.2,0.5-0.2,0.9-0.3c0.3,0.3,0.8,0.5,1.1,0.9
		c1.1,1.3,2.2,2.6,3.4,4.1c-0.8,0.8-1.4,1.5-2.1,2.1c-2.2,1.9-4.4,3.9-6.7,5.7c-1.9,1.5-3,3.2-3.5,5.5c-0.8,3.6-1.9,7.2-2.8,10.8
		c-0.3,1.4-1,2.4-2.1,3.3c-3,2.5-5.9,5-8.9,7.5c-2.1,1.7-3.3,3.8-2.9,6.5C45.4,1000,42.8,1000,40.1,1000z"/>
	<path class="st1" d="M-0.7,856.7c1.4-0.3,2.3-1.3,3.2-2.3c2.3-2.4,4.7-4.7,7-7.1c0.9-1,2-1.6,3.4-1.9c10.9-2.5,21.7-5.2,32.6-7.7
		c0.4-0.1,0.8,0,1.3,0c1.2,1.9,1.3,4.1,1.8,6.3c-1.4,0.9-2.8,1.1-4.2,1.4c-8.9,2.1-17.8,4.3-26.8,6.4c-1.9,0.4-3.4,1.2-4.8,2.6
		c-3.4,3.6-6.9,7.1-10.3,10.5c-0.9,0.9-1.7,2.1-3.2,2.2C-0.7,863.6-0.7,860.2-0.7,856.7z"/>
	<path class="st1" d="M-0.7,157.8c1.1-0.8,2.2-1.4,3.2-2.3c2.7-2.5,5.4-5.1,8.1-7.7c0.8-0.7,1.6-1.4,2.5-2.3
		c0.7,0.5,1.4,0.8,1.9,1.3c8.5,8.1,17,16.1,25.4,24.2c0.5,0.4,0.8,1,1.3,1.6c-1.4,1.9-2.9,3.5-4.8,5c-4.2-3.6-7.9-7.4-11.7-11
		c-3.9-3.6-7.7-7.3-11.7-11.1c-0.9,0.7-1.6,1.2-2.3,1.8c-3.2,3-6.4,6-9.6,9c-0.7,0.6-1.3,1.4-2.4,1C-0.7,164.2-0.7,161-0.7,157.8z"
		/>
	<path class="st1" d="M901.5-0.7c1.1,4.7,2.2,9.3,3.3,14c0.3,1.5,1.2,2.6,2.3,3.6c2.7,2.2,5.2,4.6,7.9,6.7c2.1,1.7,3.2,3.7,3.8,6.3
		c0.9,4.3,2,8.5,3.1,12.9c-2.1,1.3-4.3,1.5-6.7,2c-0.3-0.9-0.7-1.6-0.9-2.3c-0.8-3.2-1.7-6.4-2.4-9.7c-0.4-1.8-1.2-3.2-2.6-4.3
		c-2.6-2.1-5.1-4.3-7.6-6.5c-3-2.6-3-2.6-4-6.6c-0.7-2.8-1.4-5.7-2-8.6c-0.5-2.3-1.3-4.3-3.4-5.7c-0.6-0.4-0.9-1.2-1.3-1.9
		C894.6-0.7,898.1-0.7,901.5-0.7z"/>
	<path class="st1" d="M99.4-0.7c0.7,1.1,0.6,2.2,0.3,3.4c-0.9,3.6-1.6,7.3-2.5,10.9c-0.6,2.3-0.5,4.4,0.5,6.6
		c1.5,3.3,2.7,6.6,4.2,9.9c0.6,1.4,0.8,2.8,0.5,4.3c-1,4.5-2,9.1-3.1,13.6c-0.1,0.4-0.3,0.7-0.6,1.1c-2.2,0-4.2-0.5-6.4-1.3
		c0-0.9,0-1.8,0.2-2.6c0.7-3.1,1.3-6.2,2.1-9.3c0.5-1.9,0.4-3.6-0.5-5.4c-1.5-3.4-2.8-6.9-4.4-10.3c-0.7-1.7-0.9-3.2-0.4-5
		c0.9-3.7,1.7-7.5,2.6-11.3c0.4-1.6,0.3-3.2-0.6-4.6C94-0.7,96.7-0.7,99.4-0.7z"/>
	<path class="st1" d="M462.8-0.7c-0.6,2.4-1,5-1.9,7.3c-0.8,2.3-0.7,4.3,0.4,6.5c1.6,3.1,2.9,6.3,4.5,9.6c-1.4,4.6-2.8,9.3-4.2,13.9
		c-2.9,0.2-2.9,0.2-6.8-1.6c0.1-0.7,0.1-1.5,0.3-2.2c0.7-2.6,1.4-5.1,2.3-7.6c0.5-1.4,0.3-2.6-0.3-3.8c-1.3-2.8-2.5-5.6-3.9-8.3
		c-0.8-1.6-1.1-3.2-0.4-5c1-2.9,1.8-5.8,2.7-8.8C458-0.7,460.4-0.7,462.8-0.7z"/>
	<path class="st1" d="M238.3,854.1c0.6,0.2,1,0.3,1.3,0.5c4.2,3.2,49.4,43.2,51.2,45.3c-0.5,1.1-1.7,1.1-2.7,1.5
		c-12.6,4.3-25.2,8.6-37.8,12.9c-6.9,2.4-13.9,4.8-20.8,7.1c-1.3,0.4-2.6,1.3-4.5,0.9c0.1-1,0-2.1,0.2-3.1
		c4.2-21,8.4-42.1,12.6-63.1C238,855.4,238.1,854.8,238.3,854.1z"/>
	<path class="st1" d="M965,282.7c-22.1-7.7-43.8-15.2-65.4-22.7c-0.5-1.3,0.4-1.7,0.9-2.2c4.7-4.1,9.5-8.2,14.2-12.3
		c11.3-9.8,22.5-19.5,33.8-29.3c1-0.8,1.8-2,3.2-2.2c0.2,0.3,0.5,0.7,0.6,1C953.7,219.9,964.8,279.3,965,282.7z"/>
	<path class="st1" d="M553.9,696.7c-1.1-0.1-1.8-0.1-2.4-0.3c-21.5-6.2-43-12.3-64.4-18.5c-0.3-1.5,0.7-1.9,1.3-2.5
		c3.9-3.8,7.9-7.6,11.8-11.4c11.1-10.8,22.3-21.5,33.4-32.2c0.9-0.9,1.9-1.8,3.1-2.8c0.8,0.9,1,2,1.3,2.9
		c4.3,17.1,8.5,34.1,12.8,51.2c1,3.9,1.9,7.8,2.9,11.6C553.7,695.1,553.8,695.6,553.9,696.7z"/>
	<path class="st1" d="M452.4,713.3c0.3,12.4-10,24.9-25,24.8c-14.5-0.1-24.9-12.2-24.7-25.1c0.2-13.7,11.1-24.5,24.8-24.6
		C442.3,688.3,452.8,700.7,452.4,713.3z"/>
	<path class="st1" d="M858.4,869.7c-12.9,0.3-24.3-10.6-24.3-24.4c0-11.5,9-24.1,24.2-24.2c13.7-0.1,24.5,10.6,24.5,24.3
		C882.8,860.2,870.4,870,858.4,869.7z"/>
	<path class="st1" d="M434.5,256.9c-5.1,0.5-55.9,0.3-58.9-0.1c0.1-0.4,0-0.8,0.2-1.1c1.8-3.8,27.7-48,29.2-49.9
		c0.1,0,0.3,0,0.4,0.1c0.1,0.1,0.2,0.1,0.3,0.2c1.9,3.2,3.8,6.4,5.7,9.6c7.7,13.4,15.4,26.8,23.1,40.2
		C434.5,256,434.4,256.3,434.5,256.9z"/>
	<path class="st1" d="M694.9,425c-0.1,10.9-8.8,19.4-19.7,19.3c-10.6-0.1-19.3-8.9-19.2-19.6c0.1-10.8,9.1-19.6,19.8-19.4
		C686.5,405.6,695,414.3,694.9,425z"/>
	<path class="st1" d="M108.2,214c0-10.7,8.5-19.2,19.3-19.4c9.4-0.2,19.6,7.2,19.6,19.5c0,10.4-8,19.3-19.3,19.4
		C114.8,233.6,107.9,222.7,108.2,214z"/>
	<path class="st1" d="M267,80.8c10.1-0.2,19.5,8,19.4,19.7c-0.2,11.5-9.6,19.2-19.6,19.1c-10.9-0.1-19.4-8.8-19.3-19.7
		C247.5,89.9,255.9,80.6,267,80.8z"/>
	<path class="st1" d="M707.7,623c-0.3-10.6,9-19.5,19.7-19.3c9.5,0.1,19.1,8,19.1,19.6c0,9.8-7.7,19.3-19.3,19.3
		C714.5,642.6,707.2,632.1,707.7,623z"/>
	<path class="st1" d="M187.9,300.1c5.8,8.5,11.4,16.9,17.1,25.2c1.8,0.4,3.3-0.2,4.8-0.5c7.7-1.7,15.4-3.4,23-5
		c0.9-0.2,1.8-0.2,3-0.4c2.3,2.9,4.2,6.1,6.3,9.1c2.1,3,4,6,6.1,8.9c2.1,3.1,4.2,6.2,6.3,9.3c-1.8,1.7-3.7,3-5.8,4
		c-2.3-2.4-3.8-5.2-5.6-7.8c-1.8-2.5-3.4-5.1-5.2-7.6c-1.8-2.6-3.6-5.2-5.5-8c-10.2,2.2-20.2,4.3-30.4,6.5
		c-6-8.5-11.5-17.1-17.5-25.6c-5.2,0.6-10.2,2-15.2,3.1c-5.1,1-10.1,2.2-15,3.2c-2.6-3-17.3-24.8-18.7-27.8c1.5-1.5,3.3-2.5,5-3.5
		c1.4,0.1,1.8,1.3,2.4,2.1c4,5.8,7.9,11.7,11.9,17.6c0.7,1.1,1.5,2.2,2.4,3.4c1.5-0.3,2.9-0.5,4.3-0.8c7.7-1.7,15.4-3.4,23-5
		C185.5,300.4,186.4,300.3,187.9,300.1z"/>
	<path class="st1" d="M330.8,380.9c0.9-0.8,1.5-1.3,2.1-1.7c20.9-14.5,60.9-40.8,64.4-42.3c0.1,0.1,0.3,0.1,0.4,0.2
		c0.1,0.1,0.1,0.2,0.1,0.4c1.7,25.8,3.3,51.6,4.9,77.4c0,0.4-0.1,0.8-0.3,1.3c-0.6-0.1-1.1-0.2-1.5-0.4
		C377.7,404.1,354.4,392.6,330.8,380.9z M340.3,380c1.6,0.9,2.5,1.5,3.4,1.9c8.5,4.2,16.9,8.4,25.4,12.6c8.4,4.1,16.7,8.3,25.1,12.4
		c0.9,0.4,1.7,1.3,3.1,0.6c0-0.8,0-1.7,0-2.7c-0.2-4.1-0.5-8.2-0.8-12.4c-0.6-10.5-1.2-21-1.9-31.5c-0.3-4.3-0.5-8.5-0.8-12.8
		c-0.1-1,0.1-2.2-1.2-3C375.3,356.7,358.1,368.2,340.3,380z"/>
	<path class="st1" d="M444.9,132.9c-3.4-26.8-6.6-52.9-9.9-78.9c0.5-0.2,0.8-0.4,1-0.3c24.2,10.1,48.4,20.3,72.9,30.6
		c-0.8,0.8-1.3,1.4-1.8,1.8c-20,15.1-40,30.2-60,45.3C446.6,131.8,446.1,132.2,444.9,132.9z M448.5,123.9c1-0.5,1.6-0.7,1.9-1
		c16-12.1,32-24.3,48.1-36.5c0.2-0.1,0.1-0.5,0.3-1c-0.9-0.4-1.7-1-2.7-1.4c-3.4-1.5-6.9-2.9-10.3-4.3C472.2,74,458.6,68.3,445,62.5
		c-1.2-0.5-2.3-1.3-4-1c0,0.7-0.1,1.3,0,2C443.5,83.5,446,103.4,448.5,123.9z"/>
	<path class="st1" d="M655.4,319.2c0.6-0.5,1-0.9,1.4-1.2c21.8-13.5,43.7-27.1,65.6-40.6c0.2-0.1,0.5,0,0.7,0
		c0.1,0.1,0.3,0.1,0.4,0.2c0.1,0.1,0.1,0.2,0.1,0.4c0.1,0.9,0.1,1.9,0.2,2.8c0.8,25.2,1.6,50.3,2.4,75.5c-1.5,0.6-2.4-0.3-3.4-0.8
		c-10.9-5.8-21.8-11.7-32.8-17.5c-10.3-5.5-20.7-11.1-31-16.6C657.8,320.6,656.7,320,655.4,319.2z M719,285.9
		c-0.7-0.1-0.8-0.2-0.9-0.1c-0.8,0.4-1.7,0.8-2.5,1.3c-16.6,10.3-33.2,20.7-49.8,31c-0.1,0.1-0.2,0.2-0.2,0.3c0,0.1,0,0.3,0,0.7
		c0.5,0.3,1.1,0.8,1.8,1.2c2.7,1.5,5.4,2.9,8.1,4.3c14,7.5,27.9,15,41.9,22.4c1,0.5,1.9,1.5,3.4,1.1c0.1-0.5,0.2-1,0.2-1.5
		C720.4,326.5,719.8,306.2,719,285.9z"/>
	<path class="st1" d="M659.4,885c0.5-0.1,0.8-0.2,1-0.1c23.3,11.2,46.6,22.4,69.9,33.7c0.3,0.2,0.6,0.5,1,0.7
		c-2.5,2.3-62.4,43.1-65.7,44.7c-0.2-0.7-0.6-1.4-0.7-2.1c-0.3-3.7-0.6-7.4-0.8-11.2c-0.9-12.8-1.8-25.5-2.7-38.3
		c-0.6-8.4-1.3-16.7-1.9-25.1C659.3,886.5,659.4,885.8,659.4,885z M664.8,892.7c0,5.1,3.7,59.4,4.8,62.7c0.5-0.2,1-0.3,1.4-0.5
		c8.1-4.9,48.1-32.5,50.3-34.6c-0.1-0.2-0.2-0.6-0.4-0.7c-18.1-8.8-36.2-17.6-54.3-26.4C666.2,892.9,665.7,892.9,664.8,892.7z"/>
	<path class="st1" d="M104.6,569.7c0.6,0.4,1.1,0.6,1.5,1c6.1,5.6,52.5,53.4,54.4,56c-0.6,0.3-1.2,0.6-1.8,0.8
		c-14.5,4.2-71.3,18.5-75,18.9c-0.1-0.1-0.2-0.2-0.2-0.3c0-0.3-0.1-0.5,0-0.8c6.8-24.5,13.6-49,20.4-73.5
		C104.1,571.1,104.4,570.6,104.6,569.7z M107.2,579c-0.3,0.8-0.6,1.2-0.7,1.7c-5.3,19-10.6,38-15.9,57c-0.2,0.6-0.1,1.2-0.2,2.3
		c5.4-1.2,10.4-2.6,15.4-3.9c5-1.3,10.1-2.6,15.1-3.9c5.2-1.3,10.3-2.6,15.5-4c4.9-1.4,10-2.3,14.9-4.1c-2-3.1-28.1-30.2-42-43.6
		C108.6,580.1,108,579.6,107.2,579z"/>
	<path class="st1" d="M868.7,608.1c-0.9-0.2-1.4-0.3-1.9-0.5c-23.1-11.5-46.3-22.9-69.4-34.4c0.5-1.7,1.9-2.1,3-2.8
		c15-10,29.9-19.9,44.9-29.9c4.9-3.2,9.8-6.5,14.6-9.7c1.1-0.7,2.2-1.4,3.7-2.2c1.2,6.9,1,13.5,1.6,20.1c0.6,6.6,0.8,13.3,1.2,19.9
		c0.4,6.5,1,13,1.3,19.5C868,594.6,868.9,601.2,868.7,608.1z M807,572.1c2.1,1.4,52.4,26.7,55.2,27.7c0.3,0.1,0.7,0,1.3,0
		c0-0.9,0-1.7,0-2.4c-0.6-10.1-1.3-20.2-1.9-30.3c-0.6-9.3-1.1-18.6-1.7-27.9c0-0.6-0.3-1.2-0.6-2c-1.1,0.6-1.9,1-2.7,1.5
		C833.9,553.4,810.1,569.4,807,572.1z"/>
	<path class="st1" d="M584.3,853.7c-1-1.1-1.8-2-2.6-2.9c-3.7-3.7-7.3-7.4-11-11c-0.7-0.7-1.4-1.3-1.9-2c-1.4-1.9-1.3-4.2,0.2-5.9
		c1.6-1.7,4.1-1.9,6.1-0.3c0.7,0.6,1.4,1.3,2,1.9c3.5,3.5,7,7,10.5,10.5c0.9,0.9,1.9,1.8,3,2.9c0.7-0.5,1.4-0.8,1.9-1.3
		c4.1-4,8.1-8.1,12.2-12.1c0.8-0.8,1.5-1.6,2.3-2.2c1.8-1.3,4-1,5.5,0.4c1.7,1.6,1.9,3.9,0.6,5.8c-0.6,0.9-1.4,1.6-2.2,2.3
		c-3.7,3.7-7.4,7.3-11,11c-0.8,0.8-1.6,1.7-2.5,2.7c0.8,0.9,1.5,1.7,2.2,2.5c3.8,3.8,7.5,7.5,11.3,11.3c0.8,0.8,1.5,1.5,2.2,2.4
		c1.4,1.9,1.1,4.2-0.6,5.8c-1.4,1.3-3.8,1.5-5.5,0.3c-0.9-0.6-1.6-1.4-2.4-2.1c-3.7-3.7-7.3-7.4-11-11c-0.8-0.8-1.7-1.6-2.8-2.5
		c-1,0.9-1.9,1.7-2.8,2.5c-3.8,3.8-7.5,7.5-11.3,11.3c-0.8,0.7-1.5,1.5-2.4,2.1c-1.7,1.1-4.1,0.6-5.5-0.9c-1.3-1.4-1.5-3.6-0.4-5.2
		c0.6-0.9,1.4-1.6,2.1-2.4c3.6-3.6,7.2-7.2,10.7-10.7C582.2,856,583.1,855,584.3,853.7z"/>
	<path class="st1" d="M117.7,380.8c-1.6,8.5-2.2,16.6-3.8,24.8c-2.2-0.3-4-1.3-5.8-2c-2-0.7-4-1.6-5.9-2.3c-1.9-0.7-3.7-1.5-5.6-2.2
		c-1.9-0.7-3.7-1.4-5.8-2.2c-0.4,1.1-0.8,1.9-0.9,2.8c-0.9,6.3-1.8,12.7-2.7,19c-0.1,0.9-0.4,1.7-0.7,2.7c-0.6,0-1,0-1.3-0.1
		c-8.3-3.3-16.6-6.5-24.9-9.8c-0.3-0.1-0.6-0.5-1.1-0.8c0.2-2.1,1.3-3.9,2.1-6.1c0.9,0.1,1.6,0.1,2.3,0.4c4.6,1.8,9.2,3.6,13.8,5.4
		c1,0.4,2,0.6,3.2,1c1.6-8.2,2.2-16.3,3.7-24.1c1.5-0.5,2.6,0.3,3.7,0.7c5.5,2.1,10.9,4.3,16.4,6.4c1.1,0.4,2.2,1,3.7,0.9
		c1.2-8,2.3-16,3.5-24c3.1,0.5,24.7,9,27.7,10.9c-0.7,2.1-1.3,4.2-2.8,6.2C130.3,385.8,124.3,383.4,117.7,380.8z"/>
	<path class="st1" d="M815,932c-0.3,1.2-0.6,2.1-0.8,2.9c-0.9,6.3-1.7,12.7-2.6,19c-0.1,0.9-0.5,1.7-0.8,2.9
		c-9.1-3.6-18-7.1-27-10.7c-0.1-2.6,1.2-4.4,2.1-6.7c0.9,0.2,1.6,0.3,2.3,0.6c4.3,1.7,8.7,3.4,13,5.1c1.1,0.4,2.2,0.8,3.2,1.1
		c1.1-0.5,1-1.4,1.2-2.1c0.8-5.8,1.6-11.6,2.5-17.4c0.2-1.6,0.5-3.1,0.9-5c1.4,0.5,2.5,0.8,3.6,1.2c5.5,2.1,10.9,4.3,16.4,6.4
		c1.1,0.4,2.1,1.2,3.7,0.6c1.1-7.8,2.3-15.9,3.5-24.2c9.5,3.4,18.4,7.2,27.6,10.8c-0.5,2.4-1.4,4.4-2.5,6.6
		c-0.8-0.2-1.6-0.3-2.3-0.6c-4.6-1.8-9.2-3.6-13.8-5.4c-0.8-0.3-1.7-0.6-2.8-0.9c-0.3,1.1-0.6,1.9-0.8,2.8c-0.9,6.3-1.7,12.7-2.6,19
		c-0.1,0.9-0.5,1.7-0.8,2.8C830.3,938.2,823.1,934.9,815,932z"/>
	<path class="st1" d="M918.3,143.9c-3.9,2.1-7.1,4.7-10.5,7c-3.3,2.2-6.6,4.6-9.8,6.8c-1.7-2.4-9.6-22.2-11-27.3
		c1.6-1.6,3.9-1.9,6.1-2.8c0.4,0.9,0.9,1.6,1.3,2.5c1.7,4.3,3.4,8.7,5.2,13c0.4,1,0.8,1.9,1.4,3.1c0.9-0.5,1.8-0.8,2.5-1.3
		c5-3.5,10.1-7,15.1-10.5c1-0.7,2-1.3,3.2-2c2,3.9,3.2,7.8,4.8,11.6c1.6,3.8,2.7,7.8,4.9,11.6c3.6-2.5,7-4.9,10.4-7.2
		c3.3-2.3,6.5-4.6,9.9-6.9c0.5,0.7,0.8,1.1,1,1.6c2.3,5,9.1,23,9.8,25.9c-1.8,1.2-3.9,2-6.2,2.4c-1.8-2.9-2.6-6.2-3.9-9.2
		c-1.3-3-2.2-6.3-4-9.4c-3.6,2.2-6.9,4.7-10.3,7c-3.3,2.3-6.5,4.5-9.7,6.7c-1.5-0.6-1.6-1.8-1.9-2.7c-2.2-5.6-4.4-11.2-6.6-16.7
		C919.5,146.1,918.9,145.1,918.3,143.9z"/>
	<path class="st1" d="M245.5,611.1c-3.9-2-7.3-4.2-10.9-6.3c-3.4-2-6.8-4-10.2-6c-1.3,0.7-1.4,1.9-1.7,2.9c-1.9,6-3.7,11.9-5.6,17.9
		c-0.3,0.9-0.7,1.7-1,2.6c-0.6-0.1-1-0.1-1.3-0.3c-8-4.8-16-9.5-24.1-14.4c0.7-2.4,2.1-4.2,3.4-6.1c0.8,0.3,1.6,0.6,2.2,1
		c4.1,2.4,8.2,4.9,12.4,7.4c0.9,0.5,1.8,1,3,1.6c0.5-1.1,1-2,1.3-3c1.9-6,3.7-11.9,5.6-17.9c0.3-0.9,0.7-1.7,1.1-2.8
		c3.8,2,7.3,4.2,10.8,6.3c3.4,2,6.8,4,10.2,6c1.4-0.9,1.4-2.2,1.8-3.3c1.9-6,3.7-11.9,5.6-17.9c0.2-0.7,0.6-1.4,0.9-2.2
		c0.6,0.1,1,0.1,1.3,0.3c8,4.8,16,9.5,24.1,14.4c-0.7,2.4-2.2,4.1-3.4,6.2c-1-0.5-1.9-0.8-2.6-1.2c-4-2.4-8-4.8-12-7.2
		c-0.9-0.5-1.8-1-3-1.6c-0.5,1-0.9,1.7-1.2,2.6c-1.9,6-3.7,11.9-5.6,17.9C246.4,608.9,246,609.9,245.5,611.1z"/>
	<path class="st1" d="M271.4,662.6c-0.2-17.3,14.4-31.9,32.2-31.8c16,0.1,31.6,12.8,31.6,32c-0.1,17.8-14,31.8-31.8,31.8
		C283.7,694.6,271,678.5,271.4,662.6z M303.4,635.6c-15.1-0.1-27.1,12-27.3,27c-0.1,13.8,11.1,27.2,27.2,27.2
		c14.9,0,26.9-12,27.1-26.9C330.5,648,318.4,635.7,303.4,635.6z"/>
	<path class="st1" d="M875.4,711c2.7,1.6,50.2,39.5,52.8,42.2c-0.4,0.3-0.8,0.7-1.3,0.9c-9.2,4-58.7,23.1-61.9,23.8
		c0-0.5-0.2-1.1-0.1-1.6c3.3-21.6,6.6-43.2,10-64.8C874.9,711.3,875.2,711.2,875.4,711z M878.5,719.9c-0.3,1.1-0.5,2.1-0.7,3.1
		c-2.3,15.3-4.6,30.6-6.9,45.9c-0.1,0.4,0.1,0.8,0.3,1.4c0.9-0.2,1.8-0.4,2.6-0.7c4.9-1.9,9.7-3.8,14.5-5.6
		c9.1-3.5,18.1-7,27.2-10.6c1-0.4,2.5-0.4,2.8-1.9c-1.7-1.8-35.7-29.2-38.6-31.2C879.5,720.1,879.1,720.1,878.5,719.9z"/>
	<path class="st1" d="M125.4,67.6c0.8,0.7,1.2,1,1.6,1.4c6.3,7.3,39,49.1,40.6,51.9c0,0.1-0.1,0.3-0.1,0.4c-0.1,0.1-0.2,0.2-0.3,0.2
		c-21.7,3.2-43.5,6.5-65.2,9.7c-0.4,0.1-0.8-0.1-1.2-0.1c0-0.4-0.1-0.9,0-1.2C108.9,109.2,117.1,88.7,125.4,67.6z M107.9,124.7
		c2,0.6,3.5,0.2,4.9,0c8.3-1.2,16.6-2.4,24.9-3.7c6.1-0.9,12.1-1.7,18.2-2.7c1-0.1,2.1-0.1,2.9-1.3c-1.6-2.1-3.3-4.2-4.9-6.2
		c-8.3-10.5-16.5-20.9-24.8-31.4c-0.6-0.8-1-1.9-2.5-1.8C120.4,93.2,114.2,108.8,107.9,124.7z"/>
	<path class="st1" d="M374.5,841.2c2.6,3.2,32.7,55.5,33.9,58.7c-0.6,0.2-1.2,0.4-1.8,0.5c-0.9,0.1-1.9,0-2.8,0
		c-19.6,0-39.2,0-58.8,0c-1.3,0-2.6-0.1-4.1-0.1c0-1.7,0.9-2.7,1.6-3.8c6.1-10.6,12.3-21.2,18.4-31.9c3.8-6.6,7.6-13.2,11.4-19.7
		C372.9,843.7,373.6,842.6,374.5,841.2z M400.5,895.1c-0.8-1.5-1.4-2.6-2-3.8c-4.8-8.4-9.7-16.8-14.6-25.2c-2.6-4.5-5.2-9-7.8-13.5
		c-0.4-0.6-1-1.1-1.7-1.9c-8.4,14.6-16.6,28.9-24.8,43.2c-0.2,0.3-0.1,0.7-0.2,1.3c0.7,0.1,1.3,0.2,2,0.3
		C361.3,896,396.7,895.7,400.5,895.1z"/>
	<path class="st1" d="M466.8,569.4c0-0.3,0-0.8,0.2-1.1c2.1-4.3,31.8-55.3,33.6-57.5c1.1,0.7,1.6,2,2.2,3.1
		c6.4,11,12.7,21.9,19,32.9c3.7,6.3,7.3,12.7,11,19.1c0.6,1.1,1.5,2.1,1.6,3.6c-0.5,0.1-0.9,0.3-1.2,0.3c-21.9,0-43.7,0-65.6,0
		C467.3,569.8,467.1,569.6,466.8,569.4z M475.2,565c1.5,0,2.8,0.1,4.1,0.1c4.1,0,8.3,0,12.4,0c10.1,0,20.3,0,30.4,0
		c1.3,0,2.6,0.3,3.9-0.4c-0.1-0.6-0.1-1-0.2-1.3c-0.3-0.7-0.7-1.4-1.1-2.1c-7.3-12.7-14.6-25.4-22-38.1c-0.6-1-1-2.1-2.4-2.9
		c-0.3,0.4-0.5,0.8-0.7,1.1c-8.1,14.1-16.2,28.2-24.3,42.2C475.1,563.9,475.2,564.2,475.2,565z"/>
	<path class="st1" d="M833.8,63.2c0.7,1,1.3,1.7,1.8,2.5c9.4,15.5,30.7,52.7,32.1,56.2c-0.5,1-1.4,0.6-2.1,0.6c-7.2,0-14.4,0-21.6,0
		c-13.1,0-26.1,0-39.2,0c-1.5,0-2.9,0-4.3,0c-0.7-1.2,0.1-2,0.5-2.7c4-7.1,8.1-14.1,12.2-21.1c6-10.4,12-20.8,18-31.2
		C832,66.2,832.8,64.8,833.8,63.2z M859.4,117.4c-0.1-0.6-0.2-1.1-0.4-1.5c-3.2-6.4-23.4-40.7-25.1-42.7c-1.7,2-22,36.5-25.1,42.6
		c-0.2,0.4-0.3,1-0.4,1.5c0.5,0.2,0.9,0.4,1.3,0.4c16.1,0,32.3,0,48.4,0C858.5,117.8,858.9,117.6,859.4,117.4z"/>
	<path class="st1" d="M291.6,212.3c-1.4-2-2.6-3.7-3.9-5.5c0.5-1.3,1.7-1.8,2.6-2.5c7.6-5.4,15.2-10.8,22.9-16.1
		c2-1.3,3.2-3,4.1-5.2c3.6-8.9,7.4-17.7,11.1-26.6c1-2.4,2.4-4.3,4.6-5.8c8-5.5,15.9-11.2,23.9-16.8c1-0.7,2-1.3,3.1-2
		c2.1,1.3,2.9,3.5,4.4,5.5c-0.9,0.7-1.6,1.5-2.5,2.1c-7.6,5.4-15.2,10.8-22.9,16.1c-2.2,1.5-3.6,3.3-4.6,5.8
		c-3.6,8.9-7.4,17.7-11.1,26.6c-0.9,2.2-2.2,3.8-4.1,5.2c-8.4,5.7-16.6,11.6-24.9,17.5C293.6,211,292.8,211.5,291.6,212.3z"/>
	<path class="st1" d="M821.1,237.1c14.6,0,26.8,12.2,26.7,27.2c-0.1,13.1-10.4,26.8-27.2,26.8c-15,0-26.9-11.9-26.9-27
		C793.9,247.1,807.9,236.7,821.1,237.1z M820.7,286.3c11.9,0.3,22.4-9.5,22.4-22.2c0-12.1-10-22.1-22.1-22.2
		c-11.3-0.1-22.4,8.8-22.4,22.3C798.6,277.6,809.7,286.5,820.7,286.3z"/>
	<path class="st1" d="M59,261.8c14.2-0.2,26.8,11.9,26.7,27.1c-0.1,15-12.6,26.8-27.1,26.8c-13.2,0-26.9-10.3-26.9-27
		C31.6,272.4,45.1,261.4,59,261.8z M58.5,310.9c11.3,0.3,22.4-8.9,22.4-22.3c0-13.2-11.1-22.1-22.1-22.2
		c-10.4-0.1-22.4,8.1-22.4,22.3C36.5,303,48.4,311.2,58.5,310.9z"/>
	<path class="st1" d="M459.5,836c-0.4-13.7,10.7-27,26.7-27.2c15.1-0.2,27.2,12,27.3,27.1c0.1,14.3-11.4,27-26.9,27
		C470.1,862.9,459.3,849.3,459.5,836z M508.7,836.1c0.4-11-8.4-22.5-22.2-22.5c-13.9,0-22.2,11.6-22.3,22
		c-0.1,10.2,7.7,22.4,22.2,22.5C500.4,858.2,508.8,846.6,508.7,836.1z"/>
	<path class="st1" d="M650.6,579.7c-14.9-0.1-26.8-12.2-26.8-27.1c0-13.5,10.6-26.9,27.1-26.9c15.4,0,27.2,12.3,27,27.4
		C677.6,569.3,664.2,580.1,650.6,579.7z M650.8,575c11,0.1,22.4-8.6,22.3-22.4c-0.1-13.8-11.6-22.1-22.2-22.1
		c-11.5,0-22.3,9.2-22.3,22.4C628.6,565,638.7,575,650.8,575z"/>
	<path class="st1" d="M96.2,491.3c-0.2-14.1,11.7-27,27.5-26.8c14.7,0.2,26.4,12.3,26.5,27.1c0,14.6-11.7,27.2-27.4,27
		C105.8,518.3,95.7,504.2,96.2,491.3z M145.3,491.7c0.3-11.3-8.8-22.1-21.8-22.4c-12.3-0.3-22.6,9.9-22.6,22.1
		c-0.1,11,8.4,22.4,22.3,22.4C137.1,513.8,145.5,502.1,145.3,491.7z"/>
	<path class="st1" d="M851.9,458.6c0.1-14.9,12.2-27,27.1-26.9c14.5,0.1,26.9,11.4,26.9,27c0,15.9-12.8,27.2-27.3,27.1
		C863.8,485.8,851.9,473.6,851.9,458.6z M901.2,458.9c-0.1-12-9.3-22.2-22-22.3c-13.3-0.1-22.5,10.5-22.5,22.2
		c0,10.9,8.3,22.1,22,22.3C891.3,481.3,901.1,471.3,901.2,458.9z"/>
	<path class="st1" d="M493.2,376.5c-0.4-12.9,10-26.9,26.8-27.1c16-0.1,27.2,13,27.2,27.2c-0.1,14.3-11.7,26.9-27.1,26.9
		C504.5,403.5,492.9,390.5,493.2,376.5z M542.3,376.6c0.3-10.8-8.5-22.3-22.3-22.3c-12.2,0-22,10-22.1,22.2
		c-0.1,10.9,8.5,22.2,22,22.3C533.4,398.9,542.5,387.7,542.3,376.6z"/>
	<path class="st1" d="M721.4,786.4c0.2,14-11.3,26.9-27,27c-13.2,0.1-26.9-10.1-27-26.9c-0.1-15.6,12.2-27.3,27.2-27.2
		C711.4,759.5,721.7,773.4,721.4,786.4z M716.7,786.3c0.1-10.6-8.2-22.1-22.1-22.2c-13.6-0.1-22.5,11.1-22.4,22.3
		c0.1,12.2,9.9,22.1,22.1,22.2C706.6,808.7,716.7,798.6,716.7,786.3z"/>
	<path class="st1" d="M707.5,81c15,0,26.9,12,27,26.9c0.1,14.5-11.3,27.3-27.2,27.1c-17-0.2-26.9-14.2-26.8-27.1
		C680.6,93.3,692.5,80.8,707.5,81z M729.7,108.1c0.2-12-9.6-22.2-21.9-22.4c-12.4-0.2-22.5,9.8-22.6,22.1
		c-0.1,12.4,9.9,22.4,22.3,22.4C719.8,130.2,729.6,120.4,729.7,108.1z"/>
	<path class="st1" d="M609.7,139.6c1.8-1.8,3.4-3.4,5-5c2.3-2.3,4.5-4.5,6.8-6.8c0.7-0.7,1.3-1.3,2.1-1.9c1.6-1.1,3.4-1,4.8,0.3
		c1.2,1.1,1.5,3.3,0.6,4.8c-0.5,0.8-1.2,1.4-1.9,2.1c-3.3,3.3-6.6,6.6-9.9,9.9c-0.6,0.6-1.1,1.2-1.8,2c0.6,0.8,1.1,1.5,1.7,2.1
		c3.2,3.2,6.4,6.4,9.6,9.6c0.7,0.7,1.4,1.3,1.9,2c1.2,1.6,1.1,3.8-0.3,5.1c-1.4,1.3-3.4,1.4-5.1,0.1c-0.7-0.6-1.4-1.3-2-1.9
		c-3-3-6-6-9-9c-0.7-0.7-1.6-1.4-2.5-2.3c-0.9,0.8-1.7,1.4-2.4,2.1c-3,3-6,6-9.1,9c-0.8,0.7-1.5,1.5-2.4,2.2
		c-1.5,1.2-3.4,1.1-4.8-0.1c-1.4-1.2-1.7-3.5-0.6-5.1c0.5-0.8,1.2-1.4,1.9-2c3.1-3.1,6.2-6.2,9.3-9.3c0.7-0.7,1.4-1.6,2.2-2.5
		c-0.8-0.9-1.5-1.7-2.2-2.5c-3.2-3.2-6.4-6.4-9.6-9.6c-0.7-0.7-1.3-1.3-1.8-2.1c-0.8-1.4-0.5-3.4,0.5-4.5c1.3-1.4,3.1-1.6,4.7-0.6
		c0.8,0.5,1.4,1.2,2.1,1.8c3,3,6,6,9.1,9C607.6,137.6,608.5,138.4,609.7,139.6z"/>
	<path class="st1" d="M119.2,837.1c-0.3-14.6,12-27,26.8-27c14.9-0.1,27.2,12.3,27.1,27.2c-0.1,14.6-12.2,26.9-27.1,26.8
		C131.3,864.1,118.9,851.7,119.2,837.1z M146.1,859.3c11.9,0.3,22.4-9.9,22.3-22.4c-0.1-12.2-10-22-22.2-22.1
		c-12.7-0.1-22.2,10.6-22.3,22C123.8,849,133.9,859.5,146.1,859.3z"/>
	<path class="st1" d="M520.1,231.6c-15.2,0.2-27-12.6-27-26.9c-0.1-14.4,11.8-27.2,27.2-27.1c14.3,0.1,26.8,11.8,26.8,27.1
		C547.1,219.7,534.7,231.8,520.1,231.6z M542.3,204.7c0.3-12-9.9-22.4-22.3-22.3c-12.2,0.1-22.1,9.9-22.1,22.1
		c0,12.2,9.7,22.1,21.9,22.3C532.1,227.1,542.5,216.8,542.3,204.7z"/>
	<path class="st1" d="M798.4,349c6.5-1.9,12.6-3.8,18.8-5.6c2.3,2.7,3.6,5.8,5.3,8.6c1.7,2.7,3.2,5.5,4.9,8.3
		c3.5-0.3,6.5-1.7,9.7-2.6c3.1-0.8,6.1-1.8,9.3-2.8c1.9,1.8,2.8,4.2,4.1,6.3c1.3,2.2,2.5,4.4,3.8,6.6c1.2,2.2,2.5,4.4,3.8,6.6
		c-1.8,1.7-3.9,2.5-5.9,3.8c-3.5-4.7-5.6-9.9-9-14.6c-6.3,1.9-12.5,3.7-18.9,5.6c-3.7-5.6-6.6-11.4-10.1-17
		c-3.4,0.4-6.5,1.8-9.7,2.6c-3.1,0.8-6.1,1.8-9,2.7c-2-2.1-8.8-13.5-11.5-19.2c1.7-1.9,1.7-1.9,5.7-3.7c0.4,0.5,1,1.1,1.3,1.7
		c1.9,3.2,3.7,6.5,5.6,9.7C797.1,347,797.7,347.8,798.4,349z"/>
	<path class="st1" d="M337.2,772.4c-2.2-5.2-4.2-9.9-6.2-14.7c-0.4-1-0.9-2-1.1-3c-0.5-2.2,0.4-3.8,2.2-4.6c1.8-0.7,3.7,0,4.7,1.8
		c0.5,0.8,0.8,1.7,1.1,2.6c1.6,3.8,3.2,7.6,4.8,11.4c0.5,1.1,1,2.1,1.6,3.4c1-0.3,1.9-0.6,2.7-0.9c4.3-1.8,8.6-3.6,12.9-5.4
		c1-0.4,2-0.8,3-0.9c1.7-0.2,3.2,0.8,3.7,2.4c0.5,1.6,0.1,3.3-1.3,4.3c-0.9,0.6-1.9,1-2.9,1.4c-3.9,1.7-7.9,3.3-11.8,5
		c-1.1,0.5-2.1,1-3.4,1.7c1.1,3.2,2.4,6.1,3.6,9c0.9,2.2,1.9,4.4,2.8,6.6c0.3,0.7,0.6,1.5,0.8,2.3c0.4,2-0.4,3.6-2.1,4.3
		c-1.8,0.8-3.8,0.1-4.8-1.6c-0.5-0.8-0.8-1.7-1.1-2.5c-1.8-4.2-3.5-8.3-5.3-12.5c-0.3-0.7-0.7-1.4-1-2c-1.2-0.6-2,0.1-2.8,0.4
		c-4.3,1.8-8.6,3.6-12.9,5.4c-1,0.4-2,0.8-3,0.9c-1.9,0.3-3.4-0.8-3.9-2.6c-0.5-1.6,0.1-3.2,1.5-4.2c0.8-0.5,1.7-0.8,2.5-1.2
		c3.9-1.7,7.9-3.3,11.8-4.9C334.6,773.7,335.7,773.1,337.2,772.4z"/>
	<path class="st1" d="M467.2,936.6c-3,2.3-5.9,4.5-8.7,6.6c-3,2.3-5.9,4.6-8.9,6.8c-2.9,2.1-5.6,4.5-8.8,6.4
		c-9.4-7.1-18.7-14.2-28.2-21.5c1.5-2,2.8-3.6,4.2-5.5c0.9,0.5,1.7,0.8,2.4,1.4c6.1,4.6,12.1,9.2,18.1,13.8c1.1,0.9,2.3,1.7,3.7,2.7
		c8.7-6.6,17.3-13.2,26-19.8c3.6,2,6.5,4.7,9.7,7c3.1,2.3,6.2,4.6,9.2,7c3.1,2.4,6.5,4.7,9.4,7.4c-1.3,2-2.5,4-4.4,5.5
		c-4-3-7.9-6-11.8-9C475.2,942.7,471.3,939.7,467.2,936.6z"/>
	<path class="st1" d="M232.3,724.8c1.5,6.2,3.7,11.7,5,17.7c-4.3,4.3-9,8-13.3,12.3c0.1,3.2,1.5,6,2.3,8.9c0.8,2.9,1.7,5.9,2.6,8.7
		c-2,2.6-12.5,12.2-15.7,14.1c-1.4-1.5-2.8-3.1-4.3-4.8c0.5-0.7,0.9-1.3,1.5-1.9c2.5-2.3,4.9-4.5,7.4-6.7c0.9-0.8,1.8-1.5,2.8-2.3
		c-1.4-6.3-3.7-12-5.2-18.2c4.5-4.1,9-8.2,13.7-12.5c-0.7-2.4-1.3-4.7-2-7c-0.9-3.1-1.9-6.1-2.8-9.2c-0.3-0.9-0.3-1.8,0.5-2.6
		c4.7-4.3,9.5-8.6,14.3-12.9c2.1,1.5,3.3,3.4,5,5.1C240.4,717.7,236,720.8,232.3,724.8z"/>
	<path class="st1" d="M362,542.5c1.8,5.9,3.5,11.6,5.1,17.3c-1.6,2.3-10.7,10.8-15.3,14.2c-1.8-1.3-3.2-3.1-4.7-5
		c3.5-4.1,8-7,11.7-11.2c-1.7-5.8-3.4-11.6-5.2-17.5c4.3-4.6,9.3-8.2,13.6-12.8c-1.7-5.8-3.4-11.7-5.2-17.7
		c5.1-4.6,10.1-9.1,15.2-13.7c2.1,1.4,3.4,3.2,4.8,5.1c-3.4,4.2-8,7-11.6,11.1c1.4,6,3.7,11.7,5.1,17.8
		C371.1,534.3,366.6,538.4,362,542.5z"/>
	<path class="st1" d="M764.5,544.5c-8.3-4.7-64.6-41.6-67-43.9c1.2-2.3,2.6-4.5,4.3-6.5c3.5,1.7,64.3,41.3,66.8,43.5
		c0,1.4-1.1,2.3-1.8,3.4C766.2,542.2,765.4,543.2,764.5,544.5z"/>
	<path class="st1" d="M292.9,521.1c-0.7,2.5-1.8,4.9-3,7c-0.5,0-0.8,0.1-1,0c-23.6-10.2-47.2-20.4-70.8-30.7
		c-0.5-0.2-0.9-0.5-1.5-0.9c0.7-2.6,1.8-5,3.1-7.2C223.1,490.3,289.9,519.2,292.9,521.1z"/>
	<path class="st1" d="M624.1,633.6c1.5,4.8,2.1,9.8,3.6,14.5c4.8,1.6,9.5,3.1,14.1,4.7c1.4,5.5,2.7,10.8,3.7,16.3
		c-2.2,1.1-4.3,1.4-6.7,1.7c-1.6-3.9-1.7-8.2-3.3-12.2c-4.4-2-9.3-2.9-14-4.8c-1.7-4.6-2.1-9.5-3.6-14.3c-1.1-1-2.6-1.2-4-1.7
		c-2.8-0.9-5.6-1.9-8.4-2.7c-1.5-0.4-2.2-1.3-2.5-2.7c-0.7-3.5-1.6-7-2.4-10.5c-0.1-0.6-0.4-1.3-0.6-2.1c-3.9-1.3-7.7-2.6-11.9-4
		c0.3-2.4,1-4.4,2-6.5c0.5,0,0.9-0.1,1.2,0c4.5,1.4,8.9,2.8,13.4,4.2c1.3,0.4,1.9,1.3,2.1,2.6c0.7,3.3,1.7,6.5,2.2,9.8
		c0.4,2.4,1.6,3.4,3.8,4c3,0.8,5.9,1.8,8.8,2.8C622.4,632.9,623.2,633.3,624.1,633.6z"/>
	<path class="st1" d="M854.8,682.8c3.3-4.8,6.4-9.4,9.6-14.1c5.7-1,11.4-0.9,17.4-1.9c3.3-4.3,6.2-9.2,9.8-14.1
		c6.1-1,12.4-1.3,18.8-1.8c0.7,2.5,0.8,4.5,0.6,6.8c-2.2,0.8-4.5,0.7-6.7,1c-1.9,0.2-3.7,0.3-5.6,0.4c-2,0.1-3.4,0.9-4.6,2.7
		c-2.1,3.4-4.4,6.6-6.7,9.9c-0.4,0.7-0.9,1.3-1.6,2.1c-3.7,0.3-7.5,0.7-11.4,1c-5.8,0.4-5.8,0.4-9,5.1c-2.2,3.3-4.5,6.6-6.7,9.8
		c-1,0.1-1.8,0.2-2.6,0.3c-5.3,0.4-10.6,0.9-16.1,1.3c-0.7-2.3-1-4.5-0.8-6.8c2.5-1.1,5.1-0.7,7.5-1
		C849.5,683.3,852,683.1,854.8,682.8z"/>
	<path class="st1" d="M519.2,758c3-1.5,63.9-20.2,71-21.8c1.3,2.4,2.1,4.9,2.3,7.6c-3.7,1.7-67.7,21.1-70.9,21.5
		C520.4,763.1,519.9,760.6,519.2,758z"/>
	<path class="st1" d="M148.2,720.6c4.8-2.1,9.1-4.1,13.5-6c1-0.4,1.9-0.9,3-1.1c1.8-0.4,3.3,0.3,4,1.8c0.8,1.6,0.2,3.5-1.4,4.5
		c-0.8,0.5-1.6,0.9-2.5,1.2c-3.5,1.6-7.1,3.1-10.6,4.7c-1,0.4-1.9,0.9-3,1.5c0.3,0.9,0.4,1.6,0.7,2.3c1.6,3.8,3.3,7.6,5,11.3
		c0.4,1,0.9,1.9,1.2,3c0.5,1.7-0.3,3.2-1.8,4c-1.5,0.8-3.2,0.5-4.3-0.9c-0.5-0.7-0.9-1.6-1.3-2.5c-1.6-3.6-3.2-7.3-4.9-11
		c-0.4-1-0.9-1.9-1.5-3c-0.8,0.2-1.6,0.3-2.3,0.6c-3.9,1.7-7.8,3.5-11.7,5.2c-1,0.4-2,0.9-3,1.1c-1.8,0.4-3.3-0.5-3.9-2.1
		c-0.6-1.6-0.1-3.3,1.3-4.2c0.9-0.6,1.9-1,2.9-1.4c3.6-1.6,7.3-3.2,10.9-4.9c0.8-0.4,1.6-0.9,2.6-1.5c-0.6-1.5-1.2-2.8-1.7-4.2
		c-1.4-3.3-2.9-6.6-4.4-9.9c-0.3-0.7-0.7-1.5-0.9-2.2c-0.5-1.8,0.2-3.5,2-4.3c1.5-0.7,3.2-0.3,4.2,1.2c0.5,0.8,0.9,1.6,1.3,2.5
		c1.7,3.8,3.3,7.6,5,11.3C147.1,718.7,147.5,719.5,148.2,720.6z"/>
	<path class="st1" d="M414.6,481.4c-1-2.4-2-4.8-2.2-7.4c3-1.5,67-21,70.6-21.6c1.2,0.8,1.2,2.3,1.6,3.5c0.4,1.2,0.7,2.5,1.1,3.9
		c-1,0.4-1.8,0.8-2.6,1.1C458.9,468.8,418.5,480.8,414.6,481.4z"/>
	<path class="st1" d="M579.3,468.8c-0.7,1.1-1.4,2.1-1.9,3.1c-1.9,3.5-3.7,7.1-5.6,10.6c-0.4,0.8-0.9,1.6-1.5,2.3
		c-1,1.1-2.7,1.4-4,0.6c-1.3-0.7-2-1.9-1.8-3.3c0.2-1,0.6-2,1-3c1.7-3.3,3.5-6.6,5.2-9.9c0.6-1.2,1.2-2.4,1.9-3.8
		c-0.6-0.5-1.1-1.1-1.7-1.5c-3.7-2-7.5-4-11.3-6c-0.8-0.4-1.7-0.8-2.4-1.4c-1.5-1.1-2-3-1.2-4.6c0.8-1.6,2.7-2.3,4.4-1.6
		c0.9,0.3,1.7,0.8,2.5,1.2c3.3,1.7,6.6,3.5,9.9,5.2c1.1,0.6,2.1,1,3.4,1.6c0.7-1.2,1.3-2.1,1.9-3.2c1.8-3.4,3.6-6.8,5.4-10.2
		c0.4-0.8,0.8-1.7,1.4-2.4c1.1-1.4,2.8-1.7,4.3-1c1.5,0.8,2.2,2.3,1.7,4c-0.2,0.9-0.7,1.7-1.1,2.6c-2,3.8-4,7.5-6,11.3
		c-0.4,0.7-0.6,1.4-1,2.3c0.9,0.6,1.6,1.2,2.4,1.6c3.4,1.8,6.8,3.6,10.2,5.4c0.8,0.4,1.7,0.8,2.5,1.3c1.8,1.2,2.4,3.1,1.6,4.8
		c-0.8,1.7-2.7,2.3-4.8,1.5c-0.9-0.4-1.7-0.8-2.5-1.3c-3.3-1.7-6.6-3.5-9.9-5.2C581.4,469.7,580.4,469.3,579.3,468.8z"/>
	<path class="st1" d="M771.2,429.2c1-0.4,1.9-0.7,2.7-1c3.7-1.6,7.3-3.2,11-4.8c0.9-0.4,1.7-0.8,2.6-1.1c1.7-0.5,3.4,0.2,4.1,1.6
		c0.8,1.6,0.4,3.6-1.2,4.6c-0.9,0.6-1.9,1-2.9,1.4c-3.6,1.6-7.3,3.2-11,4.9c-0.8,0.4-1.6,0.9-2.5,1.4c0.4,1.1,0.8,2.1,1.2,3.1
		c1.6,3.7,3.2,7.3,4.8,11c0.4,0.9,0.8,1.7,1,2.6c0.4,1.6-0.5,3.2-2.1,3.9c-1.3,0.6-3,0.3-4-1c-0.6-0.8-1.1-1.8-1.5-2.8
		c-1.6-3.6-3.2-7.3-4.9-11c-0.4-0.9-1-1.8-1.5-2.9c-1.2,0.4-2.2,0.7-3.1,1.1c-3.5,1.5-7.1,3.1-10.6,4.7c-1,0.4-2,0.9-3,1.1
		c-1.8,0.4-3.3-0.5-3.9-2c-0.6-1.5-0.1-3.2,1.3-4.2c0.8-0.5,1.7-0.9,2.5-1.2c3.9-1.7,7.8-3.5,11.7-5.2c0.6-0.3,1.2-0.6,2-1
		c-0.2-0.8-0.2-1.6-0.5-2.2c-1.7-3.9-3.4-7.8-5.1-11.7c-0.4-1-0.9-2-1.1-3c-0.4-1.8,0.5-3.3,2.1-3.9c1.6-0.6,3.3-0.1,4.2,1.3
		c0.5,0.8,0.8,1.7,1.2,2.5c1.7,3.8,3.3,7.6,5,11.3C770.2,427.5,770.7,428.3,771.2,429.2z"/>
	<path class="st1" d="M732.8,708.4c-2-4.5-3.8-8.6-5.6-12.8c-0.5-1.1-1-2.2-1.4-3.3c-0.6-1.9,0.1-3.6,1.7-4.4
		c1.7-0.9,3.7-0.2,4.8,1.6c0.5,0.9,0.9,1.9,1.3,2.9c1.9,4.2,3.8,8.5,5.8,12.9c0.9-0.3,1.7-0.4,2.4-0.7c4-1.8,8-3.6,12.1-5.3
		c0.9-0.4,1.7-0.8,2.6-1c1.6-0.3,3.3,0.6,3.9,2.1c0.6,1.3,0.2,3-1.1,4c-0.7,0.6-1.6,1-2.4,1.3c-3.4,1.5-6.8,3-10.2,4.5
		c-1.2,0.5-2.4,1.1-3.7,1.8c0.2,0.9,0.3,1.6,0.6,2.3c1.7,4,3.5,8,5.3,12.1c0.4,1,0.8,2,0.9,3c0.2,1.5-0.7,2.9-2.2,3.5
		c-1.4,0.6-3,0.2-3.9-1.1c-0.5-0.7-0.9-1.6-1.3-2.5c-1.5-3.3-2.9-6.6-4.4-9.9c-0.6-1.3-1.2-2.6-2-4.2c-1,0.3-1.9,0.5-2.7,0.9
		c-3.9,1.7-7.8,3.4-11.7,5.1c-1,0.4-2,0.8-3,0.9c-1.6,0.2-2.9-0.8-3.4-2.2c-0.5-1.5-0.1-3.1,1.1-3.9c0.8-0.5,1.6-0.9,2.5-1.3
		c3.7-1.6,7.3-3.2,11-4.9C730.5,709.6,731.4,709.1,732.8,708.4z"/>
	<path class="st1" d="M367.3,74.5c-1.8,1.2-3.6,2.5-5.7,3.9c-1-1.4-1.9-2.6-2.7-3.8c-6.1-8.7-12.2-17.5-18.3-26.2
		c-0.4-0.5-0.8-1.1-1.1-1.6c-0.9-1.7-2.3-2.4-4.2-2.6c-7.2-0.8-14.3-1.7-21.4-2.6c-4.8-0.6-9.5-1.2-14.3-1.8
		c-0.8-0.1-1.5-0.4-2.4-0.6c-0.1-2.3-0.1-4.4,0.8-6.3c0.2-0.1,0.3-0.2,0.4-0.3c0.1-0.1,0.2-0.2,0.4-0.2c14.4,1.7,28.8,3.5,42.9,5.2
		C344.7,41.2,365.8,71.5,367.3,74.5z"/>
	<path class="st1" d="M253.2,251.7c0.8-1.8,1.6-3.5,2.4-5.2c0.3-0.7,0.8-1.3,1.3-2.2c21.5,10.3,42.8,20.6,64.2,31
		c0.6,0.3,1.1,0.7,1.8,1.2c-0.9,2.5-2,4.7-3.2,6.8c-1.6,0.5-2.7-0.6-3.8-1.1c-17.2-8.3-34.3-16.6-51.5-24.8
		c-2.9-1.4-5.8-2.8-8.6-4.2C254.9,252.8,254.2,252.3,253.2,251.7z"/>
	<path class="st1" d="M797.7,801.3c1,2.5,1.7,4.4,2.5,6.5c-0.9,0.5-1.6,0.9-2.3,1.2c-1.2,0.5-2.5,1-3.7,1.5c-6.8,2.9-4.7,1-8.3,7.7
		c-1.2,2.3-2.5,4.7-3.8,7c-2.3,1-4.6,2.3-7,2.9c-4.4,1.2-7.1,3.7-8.6,8c-0.6,1.7-1.7,3.3-2.4,5c-0.6,1.4-1.7,2.3-3.1,2.8
		c-2.5,0.9-4.9,2.1-7.4,2.9c-2.4,0.8-4.1,2.1-5.1,4.6c-1,2.6-2.5,5-3.8,7.6c-2.5-0.1-4.2-1.8-6.5-2.6c0.3-0.9,0.5-1.7,0.8-2.3
		c1.3-2.8,2.8-5.5,4-8.3c1-2.4,2.5-3.9,5-4.7c2.5-0.8,4.9-2,7.4-2.9c1.6-0.6,2.7-1.5,3.4-3.1c1.3-2.8,2.8-5.5,4-8.3
		c0.7-1.6,1.8-2.5,3.4-3.1c2.6-0.9,5.2-2.2,7.8-3.1c2.2-0.7,3.5-2.1,4.4-4.2c1.1-2.7,2.5-5.3,3.9-7.9c0.4-0.8,1.1-1.5,1.8-2.1
		c0.5-0.4,1.2-0.6,1.8-0.8C789.9,804.4,793.6,802.9,797.7,801.3z"/>
	<path class="st1" d="M717.1,198.6c1.6,2,2.9,3.7,4.3,5.6c-0.6,0.6-1.2,1.2-1.7,1.7c-2.8,2.2-5.7,4.4-8.4,6.7
		c-1.1,0.9-2.2,1.3-3.7,1.2c-3.1-0.2-6.1-0.3-9.2-0.6c-2-0.2-3.6,0.3-5.1,1.6c-1.9,1.7-4.1,3-5.9,4.8c-2,1.9-4.2,2.4-6.9,2.1
		c-2.5-0.3-5-0.3-7.6-0.6c-1.7-0.2-3.1,0.3-4.4,1.4c-2.5,2-5,3.9-7.5,6c-1.1,0.9-2.3,1.3-3.7,1.1c-3.7-0.3-7.4-0.5-11.2-0.7
		c-0.5,0-1-0.2-1.6-0.3c-0.6-2.3-0.1-4.5,0.2-6.8c1.7-0.6,3.3,0,4.9,0c2.4,0,5,0.7,7.1,0c2.2-0.7,3.9-2.6,5.8-4
		c1.8-1.3,3.4-3.3,5.5-3.9c2-0.6,4.5,0,6.7,0c2.5,0,5,0,7.6,0c1.9-1.4,4-2.7,5.7-4.4c3.2-3.2,6.8-4.4,11.2-3.6c2,0.3,4,0.2,6,0.4
		c1.4,0.1,2.6-0.3,3.7-1.2C711.4,203,714.1,200.9,717.1,198.6z"/>
	<path class="st1" d="M449.3,292.9c1-2.1,1.8-4.1,2.8-6.1c1.1,0.4,2,0.6,2.8,1c2.7,1.2,5.4,2.3,8,3.6c2.1,1.1,4.2,1.4,6.6,0.8
		c3-0.7,6-1.2,9-1.9c2.6-0.6,4.9-0.5,7.3,0.8c3.2,1.6,6.5,3,9.8,4.5c1.2,0.6,2.5,0.7,3.9,0.4c3.9-0.9,7.8-1.5,11.8-2.3
		c1.3-0.3,2.6-0.4,3.9,0.2c4.5,2.1,9,4.1,13.5,6.1c0.2,0.1,0.4,0.4,0.7,0.8c-0.4,2.1-1.4,4-2.7,6.2c-1.3-0.5-2.5-1-3.7-1.5
		c-2.4-1.1-4.9-2.1-7.3-3.3c-1.9-0.9-3.8-1.1-5.8-0.7c-3.1,0.7-6.3,1.2-9.4,2c-2.6,0.6-4.9,0.5-7.3-0.8c-2.8-1.5-5.9-2.5-8.7-4
		c-2-1.1-4-1.1-6.1-0.6c-3.5,0.8-7.1,1.4-10.6,2.1c-1.5,0.3-2.8,0.3-4.3-0.4c-4.2-2-8.5-3.8-12.8-5.7
		C450.3,293.7,450,293.4,449.3,292.9z"/>
	<path class="st1" d="M575.1,286.9c2.1-1.9,4-3.5,6-5.3c0.7,0.5,1.2,0.9,1.6,1.3c13.6,15.1,27.1,30.2,40.6,45.3
		c0.4,0.5,0.8,1,1.3,1.8c-1.7,2.2-3.7,3.7-5.6,5.3c-0.4,0-0.5,0-0.6,0c-0.1,0-0.3-0.1-0.3-0.2c-13.8-15.4-27.7-30.7-41.5-46.1
		C576.3,288.4,575.9,287.8,575.1,286.9z"/>
	<path class="st1" d="M947.3,580c0.8-0.7,1.6-1.3,2.2-1.9c2.4-2.3,4.7-4.7,7.1-7c0.7-0.6,1.4-1.3,2.1-1.8c1-0.6,2.4-0.4,3.3,0.5
		c0.9,0.9,1.2,2.3,0.6,3.3c-0.5,0.8-1.1,1.5-1.8,2.1c-2.3,2.4-4.7,4.7-7,7.1c-0.6,0.6-1.2,1.4-2,2.2c0.7,0.8,1.2,1.5,1.8,2.1
		c2.3,2.4,4.7,4.7,7,7.1c0.7,0.7,1.3,1.3,1.8,2.1c0.7,1.1,0.5,2.4-0.3,3.3c-0.9,1.1-2.4,1.4-3.6,0.6c-0.9-0.6-1.7-1.3-2.4-2.1
		c-2.8-2.8-5.7-5.6-8.6-8.6c-0.8,0.5-1.5,0.9-2,1.4c-2.5,2.4-4.9,4.9-7.4,7.3c-0.7,0.7-1.3,1.3-2.1,1.8c-1.1,0.8-2.3,0.6-3.3-0.2
		c-1-0.8-1.4-2.4-0.7-3.6c0.4-0.7,0.9-1.3,1.5-1.8c2-2,4-3.9,5.9-5.9c1-1,2-2.1,3.1-3.3c-0.5-0.7-0.8-1.4-1.3-2
		c-2.4-2.5-4.9-4.9-7.3-7.4c-0.7-0.7-1.3-1.3-1.8-2.1c-0.8-1.2-0.5-2.8,0.5-3.7c1-1,2.4-1.1,3.7-0.3c0.8,0.5,1.4,1.2,2.1,1.9
		c2.3,2.3,4.5,4.5,6.8,6.8C945.8,578.7,946.5,579.3,947.3,580z"/>
	<path class="st1" d="M801.4,178.1c-2.8,2.8-5.3,5.3-7.9,7.8c-0.8,0.8-1.5,1.5-2.3,2.2c-0.5,0.4-1.1,0.8-1.7,1
		c-1.2,0.4-2.5-0.1-3.2-1.1c-0.6-1-0.8-2-0.1-3c0.6-0.9,1.3-1.7,2.1-2.4c2.8-2.8,5.6-5.7,8.6-8.7c-0.5-0.7-0.9-1.4-1.4-1.9
		c-2.4-2.5-4.9-4.9-7.3-7.4c-0.7-0.7-1.3-1.3-1.8-2.1c-0.8-1.2-0.6-2.6,0.4-3.6c1-1,2.4-1.2,3.6-0.3c0.8,0.5,1.4,1.2,2.1,1.9
		c2.3,2.2,4.5,4.5,6.8,6.8c0.6,0.6,1.4,1.2,2.2,1.9c0.7-0.6,1.3-1.1,1.9-1.6c2.3-2.2,4.5-4.5,6.8-6.8c0.7-0.7,1.3-1.3,2-1.9
		c1.4-1.1,2.8-1.1,4,0c1.3,1.2,1.3,2.7,0.1,4.3c-0.5,0.6-1.1,1.2-1.7,1.7c-2.2,2.2-4.3,4.3-6.5,6.5c-0.6,0.7-1.2,1.4-2,2.2
		c0.6,0.8,1.1,1.5,1.7,2.2c2.2,2.3,4.5,4.5,6.8,6.8c0.7,0.7,1.3,1.3,1.9,2.1c0.9,1.3,0.8,2.6-0.1,3.7c-1,1.1-2.7,1.4-4,0.5
		c-0.6-0.4-1.2-1-1.8-1.6c-2.2-2.2-4.3-4.3-6.5-6.5C803.4,179.9,802.6,179.2,801.4,178.1z"/>
	<path class="st1" d="M954,853.9c-0.9-1-1.7-1.9-2.5-2.7c-2.2-2.2-4.3-4.3-6.5-6.5c-0.6-0.6-1.1-1.1-1.6-1.8
		c-0.7-1.1-0.5-2.8,0.5-3.7c1-1,2.5-1.1,3.7-0.3c0.8,0.5,1.4,1.2,2.1,1.9c2.3,2.2,4.5,4.5,6.8,6.8c0.6,0.6,1.4,1.2,2.2,1.9
		c0.8-0.7,1.5-1.3,2.2-1.9c2.2-2.1,4.3-4.3,6.5-6.5c0.7-0.7,1.3-1.3,2-1.9c1.3-1.1,2.9-1,4,0c1.1,1.1,1.3,2.6,0.3,4
		c-0.6,0.7-1.2,1.4-1.9,2.1c-2.1,2.1-4.1,4.1-6.2,6.2c-0.7,0.8-1.4,1.6-2.3,2.5c0.6,0.8,1.1,1.5,1.7,2.2c2.2,2.3,4.5,4.5,6.8,6.8
		c0.7,0.7,1.3,1.3,1.9,2.1c0.9,1.2,0.9,2.6,0,3.7c-0.9,1.1-2.7,1.4-4,0.5c-0.9-0.6-1.6-1.4-2.4-2.2c-2.7-2.7-5.5-5.4-8.3-8.3
		c-0.8,0.5-1.4,0.9-2,1.4c-2.4,2.3-4.7,4.7-7.1,7c-0.7,0.7-1.3,1.4-2,1.9c-1.3,1-3,0.8-4-0.2c-1-1.1-1-2.7,0-4
		c0.6-0.7,1.3-1.4,1.9-2c2.3-2.3,4.5-4.5,6.8-6.8C953,855.3,953.4,854.6,954,853.9z"/>
	<path class="st1" d="M258.1,417.3c0.8-0.7,1.5-1.2,2.2-1.9c2.4-2.3,4.7-4.7,7.1-7c0.7-0.6,1.4-1.3,2.1-1.8c1.1-0.7,2.3-0.5,3.3,0.5
		c0.9,0.9,1.3,2.2,0.7,3.3c-0.5,0.8-1.1,1.5-1.7,2.2c-2.2,2.3-4.5,4.5-6.8,6.8c-0.7,0.7-1.4,1.5-2.3,2.5c0.6,0.8,1.1,1.5,1.8,2.2
		c2.3,2.4,4.7,4.7,7,7.1c0.7,0.7,1.3,1.3,1.8,2.1c0.7,1,0.5,2.4-0.3,3.3c-0.9,1-2.4,1.4-3.6,0.7c-0.8-0.5-1.5-1.2-2.1-1.8
		c-2.2-2.1-4.3-4.3-6.5-6.5c-0.8-0.7-1.5-1.4-2.5-2.3c-0.7,0.5-1.4,0.8-1.9,1.4c-2.5,2.4-4.9,4.9-7.4,7.3c-0.7,0.7-1.3,1.3-2.1,1.8
		c-1.2,0.8-2.7,0.5-3.7-0.4c-0.8-0.8-1.1-2.3-0.5-3.4c0.4-0.7,1-1.3,1.5-1.8c2.1-2.1,4.1-4.1,6.2-6.2c0.9-0.9,1.8-1.9,2.9-3
		c-0.5-0.7-0.8-1.4-1.3-1.9c-2.5-2.6-5.1-5.1-7.6-7.7c-0.6-0.7-1.3-1.4-1.7-2.2c-0.6-1.2-0.2-2.8,0.9-3.6c1-0.8,2.2-0.8,3.3,0
		c0.8,0.5,1.4,1.2,2.1,1.9c2.3,2.2,4.5,4.5,6.8,6.8C256.6,416.1,257.3,416.6,258.1,417.3z"/>
	<path class="st1" d="M212.4,167.2c-3.1-3.1-5.9-5.9-8.7-8.8c-0.7-0.8-1.5-1.5-2.1-2.4c-0.8-1.2-0.4-2.7,0.6-3.6
		c1-0.8,2.3-1.1,3.3-0.3c0.9,0.6,1.7,1.3,2.4,2.1c2.8,2.8,5.7,5.6,8.6,8.6c0.7-0.5,1.4-0.9,2-1.4c2.5-2.4,4.9-4.9,7.4-7.3
		c0.7-0.7,1.3-1.3,2.1-1.8c1.1-0.8,2.3-0.6,3.3,0.2c1,0.8,1.5,2.4,0.8,3.6c-0.4,0.8-1.1,1.5-1.8,2.1c-2.9,2.9-5.8,5.8-8.9,8.9
		c0.5,0.8,0.8,1.5,1.3,2c2.4,2.5,4.9,4.9,7.3,7.4c0.7,0.7,1.3,1.3,1.8,2.1c0.8,1.1,0.5,2.8-0.4,3.7c-1,0.9-2.5,1.1-3.7,0.3
		c-0.8-0.5-1.4-1.2-2.1-1.9c-2.3-2.2-4.5-4.5-6.8-6.8c-0.6-0.6-1.4-1.2-2.2-1.9c-0.8,0.7-1.6,1.2-2.2,1.9c-2.4,2.3-4.7,4.7-7.1,7
		c-0.7,0.6-1.4,1.3-2.1,1.8c-1.2,0.7-2.7,0.3-3.6-0.8c-0.8-1-0.9-2.3-0.1-3.3c0.5-0.8,1.2-1.4,1.8-2.1c2.2-2.3,4.5-4.5,6.8-6.8
		C210.9,168.9,211.5,168.2,212.4,167.2z"/>
	<path class="st1" d="M109.4,911.6c1-2.5,1.9-4.8,2.9-7.3c4.4,1.1,8.1,3.1,12.1,4.6c4.1,1.6,8.1,3.3,12.2,5
		c3.9,1.6,7.9,3.2,11.8,4.9c3.9,1.6,7.9,3,11.6,5c-0.6,3.3-1.1,4.6-2.9,7.4C154.1,930.5,113.1,913.7,109.4,911.6z"/>
	<path class="st1" d="M412.5,594.7c1.8-1.3,3.2-3,4.7-4.5c1.5-1.5,3-3,4.5-4.5c0.6-0.6,1.1-1.1,1.8-1.6c1.2-0.8,2.7-0.5,3.7,0.4
		c1,1.1,1.2,2.4,0.3,3.6c-0.5,0.8-1.2,1.4-1.9,2.1c-2.3,2.3-4.5,4.5-6.8,6.8c-0.6,0.7-1.2,1.4-1.9,2.2c0.8,0.9,1.4,1.7,2.2,2.4
		c1.9,1.9,3.8,3.8,5.7,5.7c0.4,0.4,0.7,0.8,1.1,1.1c2.8,2.5,2.5,4.1,1.3,5.4c-1.4,1.5-3.1,1.2-5.4-1.1c-2.3-2.2-4.5-4.5-6.8-6.8
		c-0.7-0.7-1.6-1.4-2.5-2.3c-0.8,0.6-1.5,1.2-2.2,1.8c-2.4,2.3-4.7,4.7-7.1,7.1c-0.7,0.7-1.3,1.3-2.1,1.8c-1,0.6-2.5,0.4-3.4-0.4
		c-1-0.9-1.3-2.5-0.6-3.6c0.5-0.8,1.2-1.4,1.8-2.1c2.2-2.2,4.3-4.3,6.5-6.5c0.7-0.8,1.4-1.5,2.3-2.5c-0.5-0.7-0.9-1.4-1.4-1.9
		c-2.4-2.5-4.9-4.9-7.3-7.4c-0.7-0.7-1.3-1.3-1.8-2.1c-0.8-1.1-0.5-2.7,0.5-3.6c0.8-0.8,2.4-1,3.3-0.4c0.9,0.6,1.6,1.4,2.4,2.1
		c2.7,2.6,5.3,5.3,8,7.9C411.7,594.2,411.9,594.3,412.5,594.7z"/>
</g>
</svg>
