<?xml version="1.0" encoding="utf-8"?>
<!-- Generator: Adobe Illustrator 25.0.0, SVG Export Plug-In . SVG Version: 6.00 Build 0)  -->
<svg version="1.1" id="Calque_1" xmlns="http://www.w3.org/2000/svg" xmlns:xlink="http://www.w3.org/1999/xlink" x="0px" y="0px"
	 viewBox="0 0 1000 1000" style="enable-background:new 0 0 1000 1000;" xml:space="preserve">
<style type="text/css">
	.st0{opacity:0.1;fill:#0000DB;enable-background:new    ;}
	.st1{fill:#0000DB;}
</style>
<circle class="st0" cx="500" cy="500" r="500"/>
<path class="st1" d="M739.7,284.7l-10.5-21.5l-20.3,12.6C707.8,276.5,602.2,341,500,341s-207.8-64.6-208.9-65.2l-20.3-12.6
	l-10.5,21.5c-50.6,103.3-85.9,237.6,91.5,360C456.5,717,481.1,756,481.2,756.1l18.8,32.7l18.8-32.6c0.2-0.4,24-38.6,129.4-111.4
	C825.7,522.3,790.3,388,739.7,284.7z M308.4,373.9c6.2,2.8,12.4,5.4,18.6,8c61.5,25.4,119.8,38.2,173,38.2s111.4-12.9,173-38.2
	c5.7-2.4,11.5-4.8,17.2-7.4c6.1,22.5,12.7,52.5,11.1,70.2c-4.4,48.3-36.5,92.4-98,134.9c-41.6,28.7-76.3,55.8-103.3,80.7
	c-27-24.9-61.7-52-103.3-80.7c-61.5-42.4-93.5-86.5-98-134.9C296.7,423.2,299.8,400.3,308.4,373.9z"/>
</svg>
