<?xml version="1.0" encoding="utf-8"?>
<!-- Generator: Adobe Illustrator 25.0.0, SVG Export Plug-In . SVG Version: 6.00 Build 0)  -->
<svg version="1.1" id="Calque_1" xmlns="http://www.w3.org/2000/svg" xmlns:xlink="http://www.w3.org/1999/xlink" x="0px" y="0px"
	 viewBox="0 0 511 511" style="enable-background:new 0 0 511 511;" xml:space="preserve">
<path d="M464.2,239c-1.4-12.3-7.5-23.3-17.2-31s-21.8-11.2-34.1-9.8c-12.3,1.4-23.3,7.5-31,17.2l-40.1,50.4V113.7
	c0-25.5-20.8-46.3-46.3-46.3c-7.4,0-14.6,1.8-21.1,5.1V46.3c0-25.5-20.8-46.3-46.3-46.3c-25.6,0-46.3,20.8-46.3,46.3v4.6
	c-6.5-3.3-13.7-5.1-21-5.1c-25.5,0-46.3,20.8-46.3,46.3v26.1c-6.5-3.3-13.7-5.1-21.1-5.1C67.8,113.2,47,134,47,159.5v191.7
	c-0.3,4.1-0.5,8.1-0.5,12.1c0,81.4,66.2,147.6,147.6,147.6c39.4,0,77.3-15.9,104.9-43.9l0.6,0.5l6.7-8.5l0.2-0.2
	c2.2-2.5,4.3-5.2,6.3-8L454.2,273C462.1,263.5,465.6,251.4,464.2,239z"/>
</svg>
