<?xml version="1.0" encoding="utf-8"?>
<!-- Generator: Adobe Illustrator 25.0.0, SVG Export Plug-In . SVG Version: 6.00 Build 0)  -->
<svg version="1.1" id="Calque_1" xmlns="http://www.w3.org/2000/svg" xmlns:xlink="http://www.w3.org/1999/xlink" x="0px" y="0px"
	 viewBox="0 0 980 161.38" style="enable-background:new 0 0 980 161.38;" xml:space="preserve">
<style type="text/css">
	.st0{fill:#0000DB;}
</style>
<g>
	<path d="M310.11,30.34v48.45c0,6.72-1.26,13.02-3.78,18.9c-2.52,5.88-5.98,11.02-10.36,15.4c-4.39,4.39-9.52,7.84-15.4,10.36
		c-5.88,2.52-12.18,3.78-18.9,3.78c-6.72,0-13.02-1.26-18.9-3.78c-5.88-2.52-11.02-5.97-15.4-10.36c-4.39-4.39-7.84-9.52-10.36-15.4
		c-2.52-5.88-3.78-12.18-3.78-18.9V30.34h21.98v48.54c0,3.65,0.7,7.09,2.1,10.31c1.4,3.23,3.29,6.03,5.67,8.42
		c2.38,2.38,5.18,4.26,8.4,5.61c3.22,1.36,6.65,2.03,10.29,2.03c3.64,0,7.07-0.68,10.29-2.03c3.22-1.36,6.02-3.23,8.4-5.61
		c2.38-2.38,4.27-5.19,5.67-8.42c1.4-3.22,2.1-6.66,2.1-10.31V30.34H310.11z"/>
	<path d="M399.45,127.23h-52.79h-21.98V30.47h21.98v74.78h52.79V127.23z"/>
	<path d="M465.26,52.46h-30.81v74.77h-21.98V52.46h-30.81V30.47h83.6V52.46z"/>
	<path d="M532.47,109.73h-34.17v17.5h-21.98V30.47h21.98h35.29c6.53,0,12.37,1.31,17.5,3.92c5.13,2.61,9.43,6.02,12.88,10.22
		c3.45,4.2,5.97,8.94,7.56,14.21c1.59,5.27,2.08,10.62,1.47,16.03c-0.61,5.42-2.36,10.62-5.25,15.61c-2.9,4.99-7.1,9.27-12.6,12.81
		l17.92,23.94h-27.45L532.47,109.73z M551.1,70.1c0-6.25-1.35-10.76-4.06-13.51c-2.71-2.75-7.19-4.13-13.44-4.13h-35.29v35.29h35.29
		c6.25,0,10.73-1.38,13.44-4.13C549.74,80.86,551.1,76.36,551.1,70.1z"/>
	<path d="M678.8,78.93v48.31h-21.98v-17.5h-52.79v17.5h-21.98V78.93c0-6.72,1.26-13.02,3.78-18.9c2.52-5.88,5.97-11.01,10.36-15.4
		c4.39-4.39,9.52-7.84,15.4-10.36c5.88-2.52,12.18-3.78,18.9-3.78c6.72,0,13,1.26,18.83,3.78c5.83,2.52,10.94,5.97,15.33,10.36
		c4.39,4.39,7.84,9.52,10.36,15.4C677.54,65.9,678.8,72.2,678.8,78.93z M656.82,87.75v-4.48v-4.34c0-3.64-0.7-7.07-2.1-10.29
		c-1.4-3.22-3.29-6.02-5.67-8.4c-2.38-2.38-5.16-4.27-8.33-5.67c-3.17-1.4-6.58-2.1-10.22-2.1c-3.64,0-7.07,0.7-10.29,2.1
		c-3.22,1.4-6.02,3.29-8.4,5.67c-2.38,2.38-4.27,5.18-5.67,8.4c-1.4,3.22-2.1,6.65-2.1,10.29v4.34v4.48H656.82z"/>
	<path class="st0" d="M741.4,127.23h-27.73l-32.35-96.76h23.1l23.1,68.19l23.1-68.19h23.1L741.4,127.23z"/>
	<path class="st0" d="M834.93,30.47c5.51,0,10.66,1.03,15.47,3.08c4.81,2.05,9.01,4.88,12.6,8.47c3.59,3.59,6.42,7.8,8.47,12.6
		c2.05,4.81,3.08,9.92,3.08,15.33c0,5.51-1.03,10.67-3.08,15.47c-2.06,4.81-4.88,9.01-8.47,12.6c-3.59,3.59-7.8,6.42-12.6,8.47
		c-4.81,2.05-9.97,3.08-15.47,3.08h-30.81v17.64h-21.98V30.47h21.98H834.93z M852.58,69.96c0-6.16-1.38-10.62-4.13-13.37
		c-2.76-2.75-7.26-4.13-13.51-4.13h-30.81v35.15h30.81c6.25,0,10.76-1.38,13.51-4.13C851.2,80.72,852.58,76.22,852.58,69.96z"/>
	<path class="st0" d="M980,127.23h-21.98l-50.27-62.59v0.98v21.98v39.63h-21.98V78.78V30.47h21.98l50.27,62.87V30.47H980v48.31
		V127.23z"/>
</g>
<path class="st0" d="M159.86,6.6l-3.23-6.59l-6.25,3.86c-0.32,0.2-32.77,20.03-64.14,20.03C54.87,23.9,22.42,4.07,22.1,3.87L15.86,0
	l-3.23,6.6C-2.92,38.33-13.76,79.56,40.73,117.16c32.16,22.19,39.72,34.16,39.74,34.2l5.77,10.02l5.77-10.02
	c0.06-0.11,7.37-11.86,39.74-34.2C186.24,79.56,175.4,38.33,159.86,6.6z M27.42,34.01c1.89,0.85,3.79,1.67,5.7,2.46
	c18.9,7.79,36.77,11.73,53.12,11.73s34.22-3.95,53.12-11.73c1.76-0.73,3.52-1.48,5.27-2.26c1.88,6.9,3.91,16.11,3.41,21.56
	c-1.36,14.84-11.21,28.39-30.09,41.42c-12.78,8.82-23.41,17.12-31.71,24.77c-8.3-7.65-18.94-15.95-31.72-24.77
	C35.64,84.14,25.8,70.59,24.44,55.75C23.83,49.12,24.78,42.09,27.42,34.01z"/>
</svg>
