<?xml version="1.0" encoding="utf-8"?>
<!-- Generator: Adobe Illustrator 25.0.0, SVG Export Plug-In . SVG Version: 6.00 Build 0)  -->
<svg version="1.1" id="Calque_1" xmlns="http://www.w3.org/2000/svg" xmlns:xlink="http://www.w3.org/1999/xlink" x="0px" y="0px"
	 viewBox="0 0 127.8 26" style="enable-background:new 0 0 127.8 26;" xml:space="preserve">
<style type="text/css">
	.st0{fill-rule:evenodd;clip-rule:evenodd;}
</style>
<path d="M10.6,26H8.2v-8.6H0L8.1,0h2.4v8.6h8.2L10.6,26z M3.6,15h6.9v5.6l4.6-9.7H8.2V5.3L3.6,15z"/>
<path d="M117.4,21.4V8.7h1.7l6.4,8.2V8.7h2.3v12.7h-1.7l-6.4-8.2v8.2H117.4z M95.3,21.4l4.8-12.7h-2.5l-3.4,8.9l-3.4-8.9h-2.5
	l4.9,12.7H95.3z M105.9,21.4v-4.6h4c2.2,0,4-1.8,4-4c0-2.2-1.8-4-4-4h-6.4V11h6.4c1,0,1.7,0.8,1.7,1.7c0,1-0.8,1.7-1.7,1.7h-4h-2.3
	v2.3v4.6H105.9z"/>
<path class="st0" d="M29.5,21.4L29.5,21.4c-2.9,0-5.2-2.4-5.2-5.2V8.7h2.3v7.5c0,1.6,1.3,2.9,2.9,2.9s2.9-1.3,2.9-2.9V8.7h2.3v7.5
	C34.7,19,32.4,21.3,29.5,21.4z M48.6,21.4V19h-5.8V8.7h-2.3v12.7H48.6z M56.7,21.4h-2.3V11h-5.8V8.7h8.1V21.4z M64.8,21.4V11h4
	c1,0,1.7,0.8,1.7,1.7s-0.8,1.7-1.7,1.7h-1.7v2l3.4,4.9h2.8L70,16.6c1.7-0.5,2.9-2,2.9-3.9c0-2.2-1.8-4-4-4h-6.4V11v10.4H64.8z
	 M78.5,21.4l3.4-8.8l3.4,8.8h2.5L82.9,8.7h-2L76,21.4H78.5z"/>
</svg>
